<?xml version="1.0" encoding="UTF-8" standalone="no"?>
<!DOCTYPE svg PUBLIC "-//W3C//DTD SVG 1.1//EN"
 "http://www.w3.org/Graphics/SVG/1.1/DTD/svg11.dtd">
<!-- Generated by graphviz version 14.1.1 (20251213.1925)
 -->
<!-- Title: containment Pages: 1 -->
<svg width="461pt" height="419pt"
 viewBox="0.00 0.00 461.00 419.00" xmlns="http://www.w3.org/2000/svg" xmlns:xlink="http://www.w3.org/1999/xlink">
<g id="graph0" class="graph" transform="scale(1 1) rotate(0) translate(4 414.5)">
<title>containment</title>
<!-- doc -->
<g id="node1" class="node">
<title>doc</title>
<path fill="#faf9f7" stroke="#9c9890" d="M259.5,-410.5C259.5,-410.5 173,-410.5 173,-410.5 167,-410.5 161,-404.5 161,-398.5 161,-398.5 161,-386.5 161,-386.5 161,-380.5 167,-374.5 173,-374.5 173,-374.5 259.5,-374.5 259.5,-374.5 265.5,-374.5 271.5,-380.5 271.5,-386.5 271.5,-386.5 271.5,-398.5 271.5,-398.5 271.5,-404.5 265.5,-410.5 259.5,-410.5"/>
<text xml:space="preserve" text-anchor="middle" x="216.25" y="-395.55" font-family="Menlo" font-size="11.00" fill="#1f1f1f">Document</text>
<text xml:space="preserve" text-anchor="middle" x="216.25" y="-382.05" font-family="Menlo" font-size="11.00" fill="#1f1f1f">(node 1052001)</text>
</g>
<!-- ch1 -->
<g id="node2" class="node">
<title>ch1</title>
<path fill="#f5f3f0" stroke="#9c9890" d="M259.5,-328C259.5,-328 173,-328 173,-328 167,-328 161,-322 161,-316 161,-316 161,-304 161,-304 161,-298 167,-292 173,-292 173,-292 259.5,-292 259.5,-292 265.5,-292 271.5,-298 271.5,-304 271.5,-304 271.5,-316 271.5,-316 271.5,-322 265.5,-328 259.5,-328"/>
<text xml:space="preserve" text-anchor="middle" x="216.25" y="-313.05" font-family="Menlo" font-size="11.00" fill="#1f1f1f">Chapter</text>
<text xml:space="preserve" text-anchor="middle" x="216.25" y="-299.55" font-family="Menlo" font-size="11.00" fill="#1f1f1f">(node 1050003)</text>
</g>
<!-- doc&#45;&gt;ch1 -->
<g id="edge1" class="edge">
<title>doc&#45;&gt;ch1</title>
<path fill="none" stroke="#9c9890" d="M216.25,-374.03C216.25,-363.17 216.25,-349 216.25,-336.85"/>
<polygon fill="#9c9890" stroke="#9c9890" points="218.7,-336.95 216.25,-329.95 213.8,-336.95 218.7,-336.95"/>
<text xml:space="preserve" text-anchor="middle" x="230.88" y="-347.95" font-family="Times,serif" font-size="9.00" fill="#5c5c5c">contains</text>
</g>
<!-- sent1 -->
<g id="node3" class="node">
<title>sent1</title>
<path fill="#efece8" stroke="#9c9890" d="M256.12,-255C256.12,-255 176.38,-255 176.38,-255 170.38,-255 164.38,-249 164.38,-243 164.38,-243 164.38,-231 164.38,-231 164.38,-225 170.38,-219 176.38,-219 176.38,-219 256.12,-219 256.12,-219 262.12,-219 268.12,-225 268.12,-231 268.12,-231 268.12,-243 268.12,-243 268.12,-249 262.12,-255 256.12,-255"/>
<text xml:space="preserve" text-anchor="middle" x="216.25" y="-240.05" font-family="Menlo" font-size="11.00" fill="#1f1f1f">Sentence</text>
<text xml:space="preserve" text-anchor="middle" x="216.25" y="-226.55" font-family="Menlo" font-size="11.00" fill="#1f1f1f">(node 920150)</text>
</g>
<!-- ch1&#45;&gt;sent1 -->
<g id="edge2" class="edge">
<title>ch1&#45;&gt;sent1</title>
<path fill="none" stroke="#9c9890" d="M216.25,-291.81C216.25,-283.27 216.25,-272.77 216.25,-263.32"/>
<polygon fill="#9c9890" stroke="#9c9890" points="218.7,-263.54 216.25,-256.54 213.8,-263.54 218.7,-263.54"/>
</g>
<!-- cl1 -->
<g id="node4" class="node">
<title>cl1</title>
<path fill="#e8e5e0" stroke="#9c9890" d="M256.12,-182C256.12,-182 176.38,-182 176.38,-182 170.38,-182 164.38,-176 164.38,-170 164.38,-170 164.38,-158 164.38,-158 164.38,-152 170.38,-146 176.38,-146 176.38,-146 256.12,-146 256.12,-146 262.12,-146 268.12,-152 268.12,-158 268.12,-158 268.12,-170 268.12,-170 268.12,-176 262.12,-182 256.12,-182"/>
<text xml:space="preserve" text-anchor="middle" x="216.25" y="-167.05" font-family="Menlo" font-size="11.00" fill="#1f1f1f">Clause</text>
<text xml:space="preserve" text-anchor="middle" x="216.25" y="-153.55" font-family="Menlo" font-size="11.00" fill="#1f1f1f">(node 780042)</text>
</g>
<!-- sent1&#45;&gt;cl1 -->
<g id="edge3" class="edge">
<title>sent1&#45;&gt;cl1</title>
<path fill="none" stroke="#9c9890" d="M216.25,-218.81C216.25,-210.27 216.25,-199.77 216.25,-190.32"/>
<polygon fill="#9c9890" stroke="#9c9890" points="218.7,-190.54 216.25,-183.54 213.8,-190.54 218.7,-190.54"/>
</g>
<!-- ph1 -->
<g id="node5" class="node">
<title>ph1</title>
<path fill="#e0ddd8" stroke="#9c9890" d="M190.12,-109C190.12,-109 110.38,-109 110.38,-109 104.38,-109 98.38,-103 98.38,-97 98.38,-97 98.38,-85 98.38,-85 98.38,-79 104.38,-73 110.38,-73 110.38,-73 190.12,-73 190.12,-73 196.12,-73 202.12,-79 202.12,-85 202.12,-85 202.12,-97 202.12,-97 202.12,-103 196.12,-109 190.12,-109"/>
<text xml:space="preserve" text-anchor="middle" x="150.25" y="-94.05" font-family="Menlo" font-size="11.00" fill="#1f1f1f">Phrase</text>
<text xml:space="preserve" text-anchor="middle" x="150.25" y="-80.55" font-family="Menlo" font-size="11.00" fill="#1f1f1f">(node 503201)</text>
</g>
<!-- cl1&#45;&gt;ph1 -->
<g id="edge4" class="edge">
<title>cl1&#45;&gt;ph1</title>
<path fill="none" stroke="#9c9890" d="M200.27,-145.81C191.68,-136.57 180.97,-125.04 171.66,-115.03"/>
<polygon fill="#9c9890" stroke="#9c9890" points="173.67,-113.6 167.11,-110.14 170.08,-116.93 173.67,-113.6"/>
</g>
<!-- ph2 -->
<g id="node6" class="node">
<title>ph2</title>
<path fill="#e0ddd8" stroke="#9c9890" d="M358.12,-109C358.12,-109 278.38,-109 278.38,-109 272.38,-109 266.38,-103 266.38,-97 266.38,-97 266.38,-85 266.38,-85 266.38,-79 272.38,-73 278.38,-73 278.38,-73 358.12,-73 358.12,-73 364.12,-73 370.12,-79 370.12,-85 370.12,-85 370.12,-97 370.12,-97 370.12,-103 364.12,-109 358.12,-109"/>
<text xml:space="preserve" text-anchor="middle" x="318.25" y="-94.05" font-family="Menlo" font-size="11.00" fill="#1f1f1f">Phrase</text>
<text xml:space="preserve" text-anchor="middle" x="318.25" y="-80.55" font-family="Menlo" font-size="11.00" fill="#1f1f1f">(node 503202)</text>
</g>
<!-- cl1&#45;&gt;ph2 -->
<g id="edge5" class="edge">
<title>cl1&#45;&gt;ph2</title>
<path fill="none" stroke="#9c9890" d="M241.2,-145.63C254.79,-136.18 271.74,-124.38 286.28,-114.25"/>
<polygon fill="#9c9890" stroke="#9c9890" points="287.61,-116.31 291.96,-110.3 284.81,-112.29 287.61,-116.31"/>
</g>
<!-- w1 -->
<g id="node7" class="node">
<title>w1</title>
<path fill="#d8d4cf" stroke="#9c9890" d="M44.5,-36C44.5,-36 12,-36 12,-36 6,-36 0,-30 0,-24 0,-24 0,-12 0,-12 0,-6 6,0 12,0 12,0 44.5,0 44.5,0 50.5,0 56.5,-6 56.5,-12 56.5,-12 56.5,-24 56.5,-24 56.5,-30 50.5,-36 44.5,-36"/>
<text xml:space="preserve" text-anchor="middle" x="28.25" y="-21.05" font-family="Menlo" font-size="11.00" fill="#1f1f1f">Slot 1</text>
<text xml:space="preserve" text-anchor="middle" x="28.25" y="-7.55" font-family="Menlo" font-size="11.00" fill="#1f1f1f">&quot;In&quot;</text>
</g>
<!-- ph1&#45;&gt;w1 -->
<g id="edge6" class="edge">
<title>ph1&#45;&gt;w1</title>
<path fill="none" stroke="#9c9890" d="M120.41,-72.63C103.34,-62.7 81.83,-50.18 63.89,-39.74"/>
<polygon fill="#9c9890" stroke="#9c9890" points="65.54,-37.87 58.25,-36.46 63.07,-42.1 65.54,-37.87"/>
</g>
<!-- w2 -->
<g id="node8" class="node">
<title>w2</title>
<path fill="#d8d4cf" stroke="#9c9890" d="M130.5,-36C130.5,-36 98,-36 98,-36 92,-36 86,-30 86,-24 86,-24 86,-12 86,-12 86,-6 92,0 98,0 98,0 130.5,0 130.5,0 136.5,0 142.5,-6 142.5,-12 142.5,-12 142.5,-24 142.5,-24 142.5,-30 136.5,-36 130.5,-36"/>
<text xml:space="preserve" text-anchor="middle" x="114.25" y="-21.05" font-family="Menlo" font-size="11.00" fill="#1f1f1f">Slot 2</text>
<text xml:space="preserve" text-anchor="middle" x="114.25" y="-7.55" font-family="Menlo" font-size="11.00" fill="#1f1f1f">&quot;the&quot;</text>
</g>
<!-- ph1&#45;&gt;w2 -->
<g id="edge7" class="edge">
<title>ph1&#45;&gt;w2</title>
<path fill="none" stroke="#9c9890" d="M141.54,-72.81C137.07,-64 131.55,-53.13 126.65,-43.46"/>
<polygon fill="#9c9890" stroke="#9c9890" points="128.92,-42.51 123.57,-37.38 124.55,-44.73 128.92,-42.51"/>
</g>
<!-- w3 -->
<g id="node9" class="node">
<title>w3</title>
<path fill="#d8d4cf" stroke="#9c9890" d="M249.38,-36C249.38,-36 183.12,-36 183.12,-36 177.12,-36 171.12,-30 171.12,-24 171.12,-24 171.12,-12 171.12,-12 171.12,-6 177.12,0 183.12,0 183.12,0 249.38,0 249.38,0 255.38,0 261.38,-6 261.38,-12 261.38,-12 261.38,-24 261.38,-24 261.38,-30 255.38,-36 249.38,-36"/>
<text xml:space="preserve" text-anchor="middle" x="216.25" y="-21.05" font-family="Menlo" font-size="11.00" fill="#1f1f1f">Slot 3</text>
<text xml:space="preserve" text-anchor="middle" x="216.25" y="-7.55" font-family="Menlo" font-size="11.00" fill="#1f1f1f">&quot;beginning&quot;</text>
</g>
<!-- ph1&#45;&gt;w3 -->
<g id="edge8" class="edge">
<title>ph1&#45;&gt;w3</title>
<path fill="none" stroke="#9c9890" d="M166.23,-72.81C174.82,-63.57 185.53,-52.04 194.84,-42.03"/>
<polygon fill="#9c9890" stroke="#9c9890" points="196.42,-43.93 199.39,-37.14 192.83,-40.6 196.42,-43.93"/>
</g>
<!-- w4 -->
<g id="node10" class="node">
<title>w4</title>
<path fill="#d8d4cf" stroke="#9c9890" d="M334.5,-36C334.5,-36 302,-36 302,-36 296,-36 290,-30 290,-24 290,-24 290,-12 290,-12 290,-6 296,0 302,0 302,0 334.5,0 334.5,0 340.5,0 346.5,-6 346.5,-12 346.5,-12 346.5,-24 346.5,-24 346.5,-30 340.5,-36 334.5,-36"/>
<text xml:space="preserve" text-anchor="middle" x="318.25" y="-21.05" font-family="Menlo" font-size="11.00" fill="#1f1f1f">Slot 4</text>
<text xml:space="preserve" text-anchor="middle" x="318.25" y="-7.55" font-family="Menlo" font-size="11.00" fill="#1f1f1f">&quot;God&quot;</text>
</g>
<!-- ph2&#45;&gt;w4 -->
<g id="edge9" class="edge">
<title>ph2&#45;&gt;w4</title>
<path fill="none" stroke="#9c9890" d="M318.25,-72.81C318.25,-64.27 318.25,-53.77 318.25,-44.32"/>
<polygon fill="#9c9890" stroke="#9c9890" points="320.7,-44.54 318.25,-37.54 315.8,-44.54 320.7,-44.54"/>
</g>
<!-- w5 -->
<g id="node11" class="node">
<title>w5</title>
<path fill="#d8d4cf" stroke="#9c9890" d="M440.62,-36C440.62,-36 387.88,-36 387.88,-36 381.88,-36 375.88,-30 375.88,-24 375.88,-24 375.88,-12 375.88,-12 375.88,-6 381.88,0 387.88,0 387.88,0 440.62,0 440.62,0 446.62,0 452.62,-6 452.62,-12 452.62,-12 452.62,-24 452.62,-24 452.62,-30 446.62,-36 440.62,-36"/>
<text xml:space="preserve" text-anchor="middle" x="414.25" y="-21.05" font-family="Menlo" font-size="11.00" fill="#1f1f1f">Slot 5</text>
<text xml:space="preserve" text-anchor="middle" x="414.25" y="-7.55" font-family="Menlo" font-size="11.00" fill="#1f1f1f">&quot;created&quot;</text>
</g>
<!-- ph2&#45;&gt;w5 -->
<g id="edge10" class="edge">
<title>ph2&#45;&gt;w5</title>
<path fill="none" stroke="#9c9890" d="M341.49,-72.81C354.36,-63.29 370.51,-51.35 384.32,-41.13"/>
<polygon fill="#9c9890" stroke="#9c9890" points="385.5,-43.31 389.68,-37.17 382.59,-39.37 385.5,-43.31"/>
</g>
</g>
</svg>
