<?xml version="1.0" encoding="UTF-8" standalone="no"?>
<!DOCTYPE svg PUBLIC "-//W3C//DTD SVG 1.1//EN"
 "http://www.w3.org/Graphics/SVG/1.1/DTD/svg11.dtd">
<!-- Generated by graphviz version 14.1.1 (20251213.1925)
 -->
<!-- Title: locality Pages: 1 -->
<svg width="352pt" height="297pt"
 viewBox="0.00 0.00 352.00 297.00" xmlns="http://www.w3.org/2000/svg" xmlns:xlink="http://www.w3.org/1999/xlink">
<g id="graph0" class="graph" transform="scale(1 1) rotate(0) translate(4 293.25)">
<title>locality</title>
<!-- sent -->
<g id="node1" class="node">
<title>sent</title>
<path fill="#efece8" stroke="#9c9890" d="M203,-36C203,-36 157,-36 157,-36 151,-36 145,-30 145,-24 145,-24 145,-12 145,-12 145,-6 151,0 157,0 157,0 203,0 203,0 209,0 215,-6 215,-12 215,-12 215,-24 215,-24 215,-30 209,-36 203,-36"/>
<text xml:space="preserve" text-anchor="middle" x="180" y="-14.3" font-family="Menlo" font-size="11.00" fill="#1f1f1f">Sentence</text>
</g>
<!-- clause -->
<g id="node2" class="node">
<title>clause</title>
<path fill="#e8e5e0" stroke="#9c9890" d="M196.25,-117C196.25,-117 163.75,-117 163.75,-117 157.75,-117 151.75,-111 151.75,-105 151.75,-105 151.75,-93 151.75,-93 151.75,-87 157.75,-81 163.75,-81 163.75,-81 196.25,-81 196.25,-81 202.25,-81 208.25,-87 208.25,-93 208.25,-93 208.25,-105 208.25,-105 208.25,-111 202.25,-117 196.25,-117"/>
<text xml:space="preserve" text-anchor="middle" x="180" y="-95.3" font-family="Menlo" font-size="11.00" fill="#1f1f1f">Clause</text>
</g>
<!-- clause&#45;&gt;sent -->
<g id="edge3" class="edge">
<title>clause&#45;&gt;sent</title>
<path fill="none" stroke="#c4c0b8" stroke-dasharray="5,2" d="M180,-80.86C180,-71.19 180,-58.87 180,-47.76"/>
<polygon fill="#c4c0b8" stroke="#c4c0b8" points="183.5,-47.89 180,-37.89 176.5,-47.89 183.5,-47.89"/>
</g>
<!-- phrase -->
<g id="node3" class="node">
<title>phrase</title>
<path fill="#e0ddd8" stroke="#9c9890" d="M196.25,-198C196.25,-198 163.75,-198 163.75,-198 157.75,-198 151.75,-192 151.75,-186 151.75,-186 151.75,-174 151.75,-174 151.75,-168 157.75,-162 163.75,-162 163.75,-162 196.25,-162 196.25,-162 202.25,-162 208.25,-168 208.25,-174 208.25,-174 208.25,-186 208.25,-186 208.25,-192 202.25,-198 196.25,-198"/>
<text xml:space="preserve" text-anchor="middle" x="180" y="-176.3" font-family="Menlo" font-size="11.00" fill="#1f1f1f">Phrase</text>
</g>
<!-- phrase&#45;&gt;clause -->
<g id="edge2" class="edge">
<title>phrase&#45;&gt;clause</title>
<path fill="none" stroke="#c4c0b8" stroke-dasharray="5,2" d="M180,-161.86C180,-152.19 180,-139.87 180,-128.76"/>
<polygon fill="#c4c0b8" stroke="#c4c0b8" points="183.5,-128.89 180,-118.89 176.5,-128.89 183.5,-128.89"/>
</g>
<!-- word -->
<g id="node4" class="node">
<title>word</title>
<path fill="#fbf7f0" stroke="#c8a46a" stroke-width="2.5" d="M206.38,-289.25C206.38,-289.25 153.62,-289.25 153.62,-289.25 147.62,-289.25 141.62,-283.25 141.62,-277.25 141.62,-277.25 141.62,-265.25 141.62,-265.25 141.62,-259.25 147.62,-253.25 153.62,-253.25 153.62,-253.25 206.38,-253.25 206.38,-253.25 212.38,-253.25 218.38,-259.25 218.38,-265.25 218.38,-265.25 218.38,-277.25 218.38,-277.25 218.38,-283.25 212.38,-289.25 206.38,-289.25"/>
<text xml:space="preserve" text-anchor="middle" x="180" y="-274.3" font-family="Menlo" font-size="11.00" fill="#1f1f1f">Word</text>
<text xml:space="preserve" text-anchor="middle" x="180" y="-260.8" font-family="Menlo" font-size="11.00" fill="#1f1f1f">(current)</text>
</g>
<!-- phrase&#45;&gt;word -->
<g id="edge4" class="edge">
<title>phrase&#45;&gt;word</title>
<path fill="none" stroke="#5c5c5c" stroke-dasharray="5,2" d="M191.8,-198.49C195.5,-204.96 199.12,-212.54 201,-220 202.86,-227.39 201.47,-235.11 198.69,-242.22"/>
<polygon fill="#5c5c5c" stroke="#5c5c5c" points="195.77,-240.21 194.5,-250.73 202.06,-243.3 195.77,-240.21"/>
<text xml:space="preserve" text-anchor="middle" x="211.6" y="-221.75" font-family="Times,serif" font-size="10.00" fill="#5c5c5c">L.d()</text>
</g>
<!-- word&#45;&gt;phrase -->
<g id="edge1" class="edge">
<title>word&#45;&gt;phrase</title>
<path fill="none" stroke="#c8a46a" stroke-width="1.5" d="M178.02,-252.02C177.4,-245.48 176.8,-238.04 176.5,-231.25 176.2,-224.46 176.4,-217.15 176.83,-210.28"/>
<polygon fill="#c8a46a" stroke="#c8a46a" stroke-width="1.5" points="180.31,-210.71 177.64,-200.46 173.33,-210.14 180.31,-210.71"/>
<text xml:space="preserve" text-anchor="middle" x="186.25" y="-221.75" font-family="Times,serif" font-size="10.00" fill="#c8a46a">L.u()</text>
</g>
<!-- prev_word -->
<g id="node5" class="node">
<title>prev_word</title>
<path fill="#d8d4cf" stroke="#9c9890" d="M58,-289.25C58,-289.25 12,-289.25 12,-289.25 6,-289.25 0,-283.25 0,-277.25 0,-277.25 0,-265.25 0,-265.25 0,-259.25 6,-253.25 12,-253.25 12,-253.25 58,-253.25 58,-253.25 64,-253.25 70,-259.25 70,-265.25 70,-265.25 70,-277.25 70,-277.25 70,-283.25 64,-289.25 58,-289.25"/>
<text xml:space="preserve" text-anchor="middle" x="35" y="-274.3" font-family="Menlo" font-size="11.00" fill="#1f1f1f">Previous</text>
<text xml:space="preserve" text-anchor="middle" x="35" y="-260.8" font-family="Menlo" font-size="11.00" fill="#1f1f1f">Word</text>
</g>
<!-- word&#45;&gt;prev_word -->
<g id="edge7" class="edge">
<title>word&#45;&gt;prev_word</title>
<path fill="none" stroke="#5c5c5c" stroke-dasharray="5,2" d="M140.42,-259.86C126.45,-257.08 110.6,-255.33 96.06,-257 91.32,-257.55 86.41,-258.32 81.52,-259.24"/>
<polygon fill="#5c5c5c" stroke="#5c5c5c" points="80.84,-255.8 71.76,-261.26 82.26,-262.66 80.84,-255.8"/>
<text xml:space="preserve" text-anchor="middle" x="105.81" y="-258.75" font-family="Times,serif" font-size="10.00" fill="#5c5c5c">L.p()</text>
</g>
<!-- next_word -->
<g id="node6" class="node">
<title>next_word</title>
<path fill="#d8d4cf" stroke="#9c9890" d="M332,-289.25C332,-289.25 302,-289.25 302,-289.25 296,-289.25 290,-283.25 290,-277.25 290,-277.25 290,-265.25 290,-265.25 290,-259.25 296,-253.25 302,-253.25 302,-253.25 332,-253.25 332,-253.25 338,-253.25 344,-259.25 344,-265.25 344,-265.25 344,-277.25 344,-277.25 344,-283.25 338,-289.25 332,-289.25"/>
<text xml:space="preserve" text-anchor="middle" x="317" y="-274.3" font-family="Menlo" font-size="11.00" fill="#1f1f1f">Next</text>
<text xml:space="preserve" text-anchor="middle" x="317" y="-260.8" font-family="Menlo" font-size="11.00" fill="#1f1f1f">Word</text>
</g>
<!-- word&#45;&gt;next_word -->
<g id="edge6" class="edge">
<title>word&#45;&gt;next_word</title>
<path fill="none" stroke="#c8a46a" stroke-width="1.5" d="M219.26,-271.25C237.63,-271.25 259.46,-271.25 277.82,-271.25"/>
<polygon fill="#c8a46a" stroke="#c8a46a" stroke-width="1.5" points="277.63,-274.75 287.63,-271.25 277.63,-267.75 277.63,-274.75"/>
<text xml:space="preserve" text-anchor="middle" x="254.19" y="-276" font-family="Times,serif" font-size="10.00" fill="#c8a46a">L.n()</text>
</g>
<!-- prev_word&#45;&gt;word -->
<g id="edge5" class="edge">
<title>prev_word&#45;&gt;word</title>
<path fill="none" stroke="#c8a46a" stroke-width="1.5" d="M70.47,-271.25C87.87,-271.25 109.16,-271.25 128.33,-271.25"/>
<polygon fill="#c8a46a" stroke="#c8a46a" stroke-width="1.5" points="128.29,-274.75 138.29,-271.25 128.29,-267.75 128.29,-274.75"/>
<text xml:space="preserve" text-anchor="middle" x="105.81" y="-276" font-family="Times,serif" font-size="10.00" fill="#c8a46a">L.n()</text>
</g>
</g>
</svg>
