<?xml version="1.0" encoding="UTF-8" standalone="no"?>
<!DOCTYPE svg PUBLIC "-//W3C//DTD SVG 1.1//EN"
 "http://www.w3.org/Graphics/SVG/1.1/DTD/svg11.dtd">
<!-- Generated by graphviz version 14.1.1 (20251213.1925)
 -->
<!-- Title: features Pages: 1 -->
<svg width="296pt" height="260pt"
 viewBox="0.00 0.00 296.00 260.00" xmlns="http://www.w3.org/2000/svg" xmlns:xlink="http://www.w3.org/1999/xlink">
<g id="graph0" class="graph" transform="scale(1 1) rotate(0) translate(4 256)">
<title>features</title>
<!-- word -->
<g id="node1" class="node">
<title>word</title>
<path fill="#fbf7f0" stroke="#c8a46a" stroke-width="2" d="M96,-154.8C96,-154.8 12,-154.8 12,-154.8 6,-154.8 0,-148.8 0,-142.8 0,-142.8 0,-109.2 0,-109.2 0,-103.2 6,-97.2 12,-97.2 12,-97.2 96,-97.2 96,-97.2 102,-97.2 108,-103.2 108,-109.2 108,-109.2 108,-142.8 108,-142.8 108,-148.8 102,-154.8 96,-154.8"/>
<text xml:space="preserve" text-anchor="middle" x="54" y="-129.05" font-family="Menlo" font-size="11.00" fill="#1f1f1f">Word Node</text>
<text xml:space="preserve" text-anchor="middle" x="54" y="-115.55" font-family="Menlo" font-size="11.00" fill="#1f1f1f">(slot 5)</text>
</g>
<!-- pos -->
<g id="node2" class="node">
<title>pos</title>
<path fill="#f8f6f3" stroke="#9c9890" d="M262.75,-252C262.75,-252 203.25,-252 203.25,-252 197.25,-252 191.25,-246 191.25,-240 191.25,-240 191.25,-228 191.25,-228 191.25,-222 197.25,-216 203.25,-216 203.25,-216 262.75,-216 262.75,-216 268.75,-216 274.75,-222 274.75,-228 274.75,-228 274.75,-240 274.75,-240 274.75,-246 268.75,-252 262.75,-252"/>
<text xml:space="preserve" text-anchor="middle" x="233" y="-230.3" font-family="Menlo" font-size="11.00" fill="#1f1f1f">pos = verb</text>
</g>
<!-- word&#45;&gt;pos -->
<g id="edge1" class="edge">
<title>word&#45;&gt;pos</title>
<path fill="none" stroke="#9c9890" d="M97.37,-155.79C120.66,-171.7 150.31,-191.2 177.75,-207 180.41,-208.53 183.18,-210.07 185.98,-211.59"/>
<polygon fill="#9c9890" stroke="#9c9890" points="184.79,-213.73 192.12,-214.84 187.08,-209.4 184.79,-213.73"/>
<text xml:space="preserve" text-anchor="middle" x="142.88" y="-196.64" font-family="Times,serif" font-size="9.00" fill="#5c5c5c">F.pos</text>
</g>
<!-- lemma -->
<g id="node3" class="node">
<title>lemma</title>
<path fill="#f5f2ee" stroke="#9c9890" d="M276.25,-198C276.25,-198 189.75,-198 189.75,-198 183.75,-198 177.75,-192 177.75,-186 177.75,-186 177.75,-174 177.75,-174 177.75,-168 183.75,-162 189.75,-162 189.75,-162 276.25,-162 276.25,-162 282.25,-162 288.25,-168 288.25,-174 288.25,-174 288.25,-186 288.25,-186 288.25,-192 282.25,-198 276.25,-198"/>
<text xml:space="preserve" text-anchor="middle" x="233" y="-176.3" font-family="Menlo" font-size="11.00" fill="#1f1f1f">lemma = create</text>
</g>
<!-- word&#45;&gt;lemma -->
<g id="edge2" class="edge">
<title>word&#45;&gt;lemma</title>
<path fill="none" stroke="#9c9890" d="M108.59,-142.35C127.72,-148.19 149.46,-154.82 169.29,-160.87"/>
<polygon fill="#9c9890" stroke="#9c9890" points="168.51,-163.19 175.92,-162.89 169.94,-158.51 168.51,-163.19"/>
<text xml:space="preserve" text-anchor="middle" x="142.88" y="-159.79" font-family="Times,serif" font-size="9.00" fill="#5c5c5c">F.lemma</text>
</g>
<!-- tense -->
<g id="node4" class="node">
<title>tense</title>
<path fill="#f2eee9" stroke="#9c9890" d="M269.5,-144C269.5,-144 196.5,-144 196.5,-144 190.5,-144 184.5,-138 184.5,-132 184.5,-132 184.5,-120 184.5,-120 184.5,-114 190.5,-108 196.5,-108 196.5,-108 269.5,-108 269.5,-108 275.5,-108 281.5,-114 281.5,-120 281.5,-120 281.5,-132 281.5,-132 281.5,-138 275.5,-144 269.5,-144"/>
<text xml:space="preserve" text-anchor="middle" x="233" y="-122.3" font-family="Menlo" font-size="11.00" fill="#1f1f1f">tense = past</text>
</g>
<!-- word&#45;&gt;tense -->
<g id="edge3" class="edge">
<title>word&#45;&gt;tense</title>
<path fill="none" stroke="#9c9890" d="M108.59,-126C129.79,-126 154.17,-126 175.63,-126"/>
<polygon fill="#9c9890" stroke="#9c9890" points="175.5,-128.45 182.5,-126 175.5,-123.55 175.5,-128.45"/>
<text xml:space="preserve" text-anchor="middle" x="142.88" y="-127.95" font-family="Times,serif" font-size="9.00" fill="#5c5c5c">F.tense</text>
</g>
<!-- person -->
<g id="node5" class="node">
<title>person</title>
<path fill="#efebe5" stroke="#9c9890" d="M269.5,-90C269.5,-90 196.5,-90 196.5,-90 190.5,-90 184.5,-84 184.5,-78 184.5,-78 184.5,-66 184.5,-66 184.5,-60 190.5,-54 196.5,-54 196.5,-54 269.5,-54 269.5,-54 275.5,-54 281.5,-60 281.5,-66 281.5,-66 281.5,-78 281.5,-78 281.5,-84 275.5,-90 269.5,-90"/>
<text xml:space="preserve" text-anchor="middle" x="233" y="-68.3" font-family="Menlo" font-size="11.00" fill="#1f1f1f">person = 3rd</text>
</g>
<!-- word&#45;&gt;person -->
<g id="edge4" class="edge">
<title>word&#45;&gt;person</title>
<path fill="none" stroke="#9c9890" d="M108.59,-109.65C129.88,-103.16 154.38,-95.68 175.92,-89.11"/>
<polygon fill="#9c9890" stroke="#9c9890" points="176.58,-91.47 182.56,-87.08 175.15,-86.78 176.58,-91.47"/>
<text xml:space="preserve" text-anchor="middle" x="142.88" y="-105.79" font-family="Times,serif" font-size="9.00" fill="#5c5c5c">F.person</text>
</g>
<!-- number -->
<g id="node6" class="node">
<title>number</title>
<path fill="#ece7e0" stroke="#9c9890" d="M266.12,-36C266.12,-36 199.88,-36 199.88,-36 193.88,-36 187.88,-30 187.88,-24 187.88,-24 187.88,-12 187.88,-12 187.88,-6 193.88,0 199.88,0 199.88,0 266.12,0 266.12,0 272.12,0 278.12,-6 278.12,-12 278.12,-12 278.12,-24 278.12,-24 278.12,-30 272.12,-36 266.12,-36"/>
<text xml:space="preserve" text-anchor="middle" x="233" y="-14.3" font-family="Menlo" font-size="11.00" fill="#1f1f1f">number = sg</text>
</g>
<!-- word&#45;&gt;number -->
<g id="edge5" class="edge">
<title>word&#45;&gt;number</title>
<path fill="none" stroke="#9c9890" d="M97.37,-96.21C120.66,-80.3 150.31,-60.8 177.75,-45 180.41,-43.47 183.18,-41.93 185.98,-40.41"/>
<polygon fill="#9c9890" stroke="#9c9890" points="187.08,-42.6 192.12,-37.16 184.79,-38.27 187.08,-42.6"/>
<text xml:space="preserve" text-anchor="middle" x="142.88" y="-78.83" font-family="Times,serif" font-size="9.00" fill="#5c5c5c">F.number</text>
</g>
</g>
</svg>
