<?xml version="1.0" encoding="UTF-8" standalone="no"?>
<!DOCTYPE svg PUBLIC "-//W3C//DTD SVG 1.1//EN"
 "http://www.w3.org/Graphics/SVG/1.1/DTD/svg11.dtd">
<!-- Generated by graphviz version 14.1.1 (20251213.1925)
 -->
<!-- Title: slot_sequence Pages: 1 -->
<svg width="784pt" height="44pt"
 viewBox="0.00 0.00 784.00 44.00" xmlns="http://www.w3.org/2000/svg" xmlns:xlink="http://www.w3.org/1999/xlink">
<g id="graph0" class="graph" transform="scale(1 1) rotate(0) translate(4 40)">
<title>slot_sequence</title>
<!-- s1 -->
<g id="node1" class="node">
<title>s1</title>
<path fill="#d8d4cf" stroke="#9c9890" d="M44.5,-36C44.5,-36 12,-36 12,-36 6,-36 0,-30 0,-24 0,-24 0,-12 0,-12 0,-6 6,0 12,0 12,0 44.5,0 44.5,0 50.5,0 56.5,-6 56.5,-12 56.5,-12 56.5,-24 56.5,-24 56.5,-30 50.5,-36 44.5,-36"/>
<text xml:space="preserve" text-anchor="middle" x="28.25" y="-21.05" font-family="Menlo" font-size="11.00" fill="#1f1f1f">Slot 1</text>
<text xml:space="preserve" text-anchor="middle" x="28.25" y="-7.55" font-family="Menlo" font-size="11.00" fill="#1f1f1f">&quot;In&quot;</text>
</g>
<!-- s2 -->
<g id="node2" class="node">
<title>s2</title>
<path fill="#d8d4cf" stroke="#9c9890" d="M137,-36C137,-36 104.5,-36 104.5,-36 98.5,-36 92.5,-30 92.5,-24 92.5,-24 92.5,-12 92.5,-12 92.5,-6 98.5,0 104.5,0 104.5,0 137,0 137,0 143,0 149,-6 149,-12 149,-12 149,-24 149,-24 149,-30 143,-36 137,-36"/>
<text xml:space="preserve" text-anchor="middle" x="120.75" y="-21.05" font-family="Menlo" font-size="11.00" fill="#1f1f1f">Slot 2</text>
<text xml:space="preserve" text-anchor="middle" x="120.75" y="-7.55" font-family="Menlo" font-size="11.00" fill="#1f1f1f">&quot;the&quot;</text>
</g>
<!-- s1&#45;&gt;s2 -->
<g id="edge1" class="edge">
<title>s1&#45;&gt;s2</title>
<path fill="none" stroke="#9c9890" d="M56.89,-18C65.4,-18 74.9,-18 83.87,-18"/>
<polygon fill="#9c9890" stroke="#9c9890" points="83.76,-20.45 90.76,-18 83.76,-15.55 83.76,-20.45"/>
</g>
<!-- s3 -->
<g id="node3" class="node">
<title>s3</title>
<path fill="#d8d4cf" stroke="#9c9890" d="M263.25,-36C263.25,-36 197,-36 197,-36 191,-36 185,-30 185,-24 185,-24 185,-12 185,-12 185,-6 191,0 197,0 197,0 263.25,0 263.25,0 269.25,0 275.25,-6 275.25,-12 275.25,-12 275.25,-24 275.25,-24 275.25,-30 269.25,-36 263.25,-36"/>
<text xml:space="preserve" text-anchor="middle" x="230.12" y="-21.05" font-family="Menlo" font-size="11.00" fill="#1f1f1f">Slot 3</text>
<text xml:space="preserve" text-anchor="middle" x="230.12" y="-7.55" font-family="Menlo" font-size="11.00" fill="#1f1f1f">&quot;beginning&quot;</text>
</g>
<!-- s2&#45;&gt;s3 -->
<g id="edge2" class="edge">
<title>s2&#45;&gt;s3</title>
<path fill="none" stroke="#9c9890" d="M149.4,-18C157.76,-18 167.24,-18 176.66,-18"/>
<polygon fill="#9c9890" stroke="#9c9890" points="176.39,-20.45 183.39,-18 176.39,-15.55 176.39,-20.45"/>
</g>
<!-- s4 -->
<g id="node4" class="node">
<title>s4</title>
<path fill="#d8d4cf" stroke="#9c9890" d="M355.75,-36C355.75,-36 323.25,-36 323.25,-36 317.25,-36 311.25,-30 311.25,-24 311.25,-24 311.25,-12 311.25,-12 311.25,-6 317.25,0 323.25,0 323.25,0 355.75,0 355.75,0 361.75,0 367.75,-6 367.75,-12 367.75,-12 367.75,-24 367.75,-24 367.75,-30 361.75,-36 355.75,-36"/>
<text xml:space="preserve" text-anchor="middle" x="339.5" y="-21.05" font-family="Menlo" font-size="11.00" fill="#1f1f1f">Slot 4</text>
<text xml:space="preserve" text-anchor="middle" x="339.5" y="-7.55" font-family="Menlo" font-size="11.00" fill="#1f1f1f">&quot;God&quot;</text>
</g>
<!-- s3&#45;&gt;s4 -->
<g id="edge3" class="edge">
<title>s3&#45;&gt;s4</title>
<path fill="none" stroke="#9c9890" d="M275.73,-18C284.63,-18 293.88,-18 302.45,-18"/>
<polygon fill="#9c9890" stroke="#9c9890" points="302.24,-20.45 309.24,-18 302.24,-15.55 302.24,-20.45"/>
</g>
<!-- s5 -->
<g id="node5" class="node">
<title>s5</title>
<path fill="#d8d4cf" stroke="#9c9890" d="M468.5,-36C468.5,-36 415.75,-36 415.75,-36 409.75,-36 403.75,-30 403.75,-24 403.75,-24 403.75,-12 403.75,-12 403.75,-6 409.75,0 415.75,0 415.75,0 468.5,0 468.5,0 474.5,0 480.5,-6 480.5,-12 480.5,-12 480.5,-24 480.5,-24 480.5,-30 474.5,-36 468.5,-36"/>
<text xml:space="preserve" text-anchor="middle" x="442.12" y="-21.05" font-family="Menlo" font-size="11.00" fill="#1f1f1f">Slot 5</text>
<text xml:space="preserve" text-anchor="middle" x="442.12" y="-7.55" font-family="Menlo" font-size="11.00" fill="#1f1f1f">&quot;created&quot;</text>
</g>
<!-- s4&#45;&gt;s5 -->
<g id="edge4" class="edge">
<title>s4&#45;&gt;s5</title>
<path fill="none" stroke="#9c9890" d="M368,-18C376.37,-18 385.82,-18 395.07,-18"/>
<polygon fill="#9c9890" stroke="#9c9890" points="394.96,-20.45 401.96,-18 394.96,-15.55 394.96,-20.45"/>
</g>
<!-- s6 -->
<g id="node6" class="node">
<title>s6</title>
<path fill="#d8d4cf" stroke="#9c9890" d="M561,-36C561,-36 528.5,-36 528.5,-36 522.5,-36 516.5,-30 516.5,-24 516.5,-24 516.5,-12 516.5,-12 516.5,-6 522.5,0 528.5,0 528.5,0 561,0 561,0 567,0 573,-6 573,-12 573,-12 573,-24 573,-24 573,-30 567,-36 561,-36"/>
<text xml:space="preserve" text-anchor="middle" x="544.75" y="-21.05" font-family="Menlo" font-size="11.00" fill="#1f1f1f">Slot 6</text>
<text xml:space="preserve" text-anchor="middle" x="544.75" y="-7.55" font-family="Menlo" font-size="11.00" fill="#1f1f1f">&quot;the&quot;</text>
</g>
<!-- s5&#45;&gt;s6 -->
<g id="edge5" class="edge">
<title>s5&#45;&gt;s6</title>
<path fill="none" stroke="#9c9890" d="M480.88,-18C489.66,-18 498.99,-18 507.7,-18"/>
<polygon fill="#9c9890" stroke="#9c9890" points="507.64,-20.45 514.64,-18 507.64,-15.55 507.64,-20.45"/>
</g>
<!-- s7 -->
<g id="node7" class="node">
<title>s7</title>
<path fill="#d8d4cf" stroke="#9c9890" d="M673.75,-36C673.75,-36 621,-36 621,-36 615,-36 609,-30 609,-24 609,-24 609,-12 609,-12 609,-6 615,0 621,0 621,0 673.75,0 673.75,0 679.75,0 685.75,-6 685.75,-12 685.75,-12 685.75,-24 685.75,-24 685.75,-30 679.75,-36 673.75,-36"/>
<text xml:space="preserve" text-anchor="middle" x="647.38" y="-21.05" font-family="Menlo" font-size="11.00" fill="#1f1f1f">Slot 7</text>
<text xml:space="preserve" text-anchor="middle" x="647.38" y="-7.55" font-family="Menlo" font-size="11.00" fill="#1f1f1f">&quot;heavens&quot;</text>
</g>
<!-- s6&#45;&gt;s7 -->
<g id="edge6" class="edge">
<title>s6&#45;&gt;s7</title>
<path fill="none" stroke="#9c9890" d="M573.25,-18C581.62,-18 591.07,-18 600.32,-18"/>
<polygon fill="#9c9890" stroke="#9c9890" points="600.21,-20.45 607.21,-18 600.21,-15.55 600.21,-20.45"/>
</g>
<!-- more -->
<g id="node8" class="node">
<title>more</title>
<path fill="#d8d4cf" stroke="none" d="M763.75,-36C763.75,-36 733.75,-36 733.75,-36 727.75,-36 721.75,-30 721.75,-24 721.75,-24 721.75,-12 721.75,-12 721.75,-6 727.75,0 733.75,0 733.75,0 763.75,0 763.75,0 769.75,0 775.75,-6 775.75,-12 775.75,-12 775.75,-24 775.75,-24 775.75,-30 769.75,-36 763.75,-36"/>
<text xml:space="preserve" text-anchor="middle" x="748.75" y="-13.32" font-family="Menlo" font-size="14.00" fill="#5c5c5c">...</text>
</g>
<!-- s7&#45;&gt;more -->
<g id="edge7" class="edge">
<title>s7&#45;&gt;more</title>
<path fill="none" stroke="#c4c0b8" stroke-dasharray="5,2" d="M686.23,-18C695.2,-18 704.71,-18 713.51,-18"/>
<polygon fill="#c4c0b8" stroke="#c4c0b8" points="713.5,-20.45 720.5,-18 713.5,-15.55 713.5,-20.45"/>
</g>
</g>
</svg>
