<?xml version="1.0" encoding="UTF-8" standalone="no"?>
<!DOCTYPE svg PUBLIC "-//W3C//DTD SVG 1.1//EN"
 "http://www.w3.org/Graphics/SVG/1.1/DTD/svg11.dtd">
<!-- Generated by graphviz version 14.1.1 (20251213.1925)
 -->
<!-- Title: spanning Pages: 1 -->
<svg width="552pt" height="273pt"
 viewBox="0.00 0.00 552.00 273.00" xmlns="http://www.w3.org/2000/svg" xmlns:xlink="http://www.w3.org/1999/xlink">
<g id="graph0" class="graph" transform="scale(1 1) rotate(0) translate(4 268.5)">
<title>spanning</title>
<!-- sentence -->
<g id="node1" class="node">
<title>sentence</title>
<path fill="#efece8" stroke="#9c9890" d="M512,-264.5C512,-264.5 32,-264.5 32,-264.5 26,-264.5 20,-258.5 20,-252.5 20,-252.5 20,-240.5 20,-240.5 20,-234.5 26,-228.5 32,-228.5 32,-228.5 512,-228.5 512,-228.5 518,-228.5 524,-234.5 524,-240.5 524,-240.5 524,-252.5 524,-252.5 524,-258.5 518,-264.5 512,-264.5"/>
<text xml:space="preserve" text-anchor="middle" x="272" y="-243.38" font-family="Menlo" font-size="10.00" fill="#1f1f1f">Sentence &#160;— &#160;spans slots 1&#45;7</text>
</g>
<!-- clause -->
<g id="node2" class="node">
<title>clause</title>
<path fill="#e8e5e0" stroke="#9c9890" d="M512,-199.5C512,-199.5 32,-199.5 32,-199.5 26,-199.5 20,-193.5 20,-187.5 20,-187.5 20,-175.5 20,-175.5 20,-169.5 26,-163.5 32,-163.5 32,-163.5 512,-163.5 512,-163.5 518,-163.5 524,-169.5 524,-175.5 524,-175.5 524,-187.5 524,-187.5 524,-193.5 518,-199.5 512,-199.5"/>
<text xml:space="preserve" text-anchor="middle" x="272" y="-178.38" font-family="Menlo" font-size="10.00" fill="#1f1f1f">Clause &#160;— &#160;spans slots 1&#45;7</text>
</g>
<!-- sentence&#45;&gt;clause -->
<!-- phrases -->
<g id="node3" class="node">
<title>phrases</title>
<path fill="none" stroke="none" d="M532,-134.5C532,-134.5 12,-134.5 12,-134.5 6,-134.5 0,-128.5 0,-122.5 0,-122.5 0,-93 0,-93 0,-87 6,-81 12,-81 12,-81 532,-81 532,-81 538,-81 544,-87 544,-93 544,-93 544,-122.5 544,-122.5 544,-128.5 538,-134.5 532,-134.5"/>
<path fill="#e0ddd8" stroke="none" d="M25.83,-93C25.83,-93 222.17,-93 222.17,-93 227.08,-93 232,-97.92 232,-102.83 232,-102.83 232,-112.67 232,-112.67 232,-117.58 227.08,-122.5 222.17,-122.5 222.17,-122.5 25.83,-122.5 25.83,-122.5 20.92,-122.5 16,-117.58 16,-112.67 16,-112.67 16,-102.83 16,-102.83 16,-97.92 20.92,-93 25.83,-93"/>
<text xml:space="preserve" text-anchor="start" x="76" y="-111" font-family="Menlo" font-size="10.00" fill="#1f1f1f">Phrase (subject)</text>
<text xml:space="preserve" text-anchor="start" x="79" y="-98.25" font-family="Menlo" font-size="10.00" fill="#1f1f1f">spans slots 1&#45;3</text>
<path fill="#e0ddd8" stroke="none" d="M249.83,-93C249.83,-93 518.17,-93 518.17,-93 523.08,-93 528,-97.92 528,-102.83 528,-102.83 528,-112.67 528,-112.67 528,-117.58 523.08,-122.5 518.17,-122.5 518.17,-122.5 249.83,-122.5 249.83,-122.5 244.92,-122.5 240,-117.58 240,-112.67 240,-112.67 240,-102.83 240,-102.83 240,-97.92 244.92,-93 249.83,-93"/>
<text xml:space="preserve" text-anchor="start" x="330" y="-111" font-family="Menlo" font-size="10.00" fill="#1f1f1f">Phrase (predicate)</text>
<text xml:space="preserve" text-anchor="start" x="339" y="-98.25" font-family="Menlo" font-size="10.00" fill="#1f1f1f">spans slots 4&#45;7</text>
</g>
<!-- clause&#45;&gt;phrases -->
<!-- words -->
<g id="node4" class="node">
<title>words</title>
<path fill="none" stroke="none" d="M506,-52C506,-52 38,-52 38,-52 32,-52 26,-46 26,-40 26,-40 26,-12 26,-12 26,-6 32,0 38,0 38,0 506,0 506,0 512,0 518,-6 518,-12 518,-12 518,-40 518,-40 518,-46 512,-52 506,-52"/>
<path fill="#d8d4cf" stroke="none" d="M43.58,-27.25C43.58,-27.25 92.42,-27.25 92.42,-27.25 95.21,-27.25 98,-30.04 98,-32.83 98,-32.83 98,-38.42 98,-38.42 98,-41.21 95.21,-44 92.42,-44 92.42,-44 43.58,-44 43.58,-44 40.79,-44 38,-41.21 38,-38.42 38,-38.42 38,-32.83 38,-32.83 38,-30.04 40.79,-27.25 43.58,-27.25"/>
<text xml:space="preserve" text-anchor="start" x="53" y="-32.5" font-family="Menlo" font-size="10.00" fill="#1f1f1f">1: In</text>
<path fill="#d8d4cf" stroke="none" d="M107.58,-27.25C107.58,-27.25 156.42,-27.25 156.42,-27.25 159.21,-27.25 162,-30.04 162,-32.83 162,-32.83 162,-38.42 162,-38.42 162,-41.21 159.21,-44 156.42,-44 156.42,-44 107.58,-44 107.58,-44 104.79,-44 102,-41.21 102,-38.42 102,-38.42 102,-32.83 102,-32.83 102,-30.04 104.79,-27.25 107.58,-27.25"/>
<text xml:space="preserve" text-anchor="start" x="114" y="-32.5" font-family="Menlo" font-size="10.00" fill="#1f1f1f">2: the</text>
<path fill="#d8d4cf" stroke="none" d="M171.58,-27.25C171.58,-27.25 236.42,-27.25 236.42,-27.25 239.21,-27.25 242,-30.04 242,-32.83 242,-32.83 242,-38.42 242,-38.42 242,-41.21 239.21,-44 236.42,-44 236.42,-44 171.58,-44 171.58,-44 168.79,-44 166,-41.21 166,-38.42 166,-38.42 166,-32.83 166,-32.83 166,-30.04 168.79,-27.25 171.58,-27.25"/>
<text xml:space="preserve" text-anchor="start" x="168" y="-32.5" font-family="Menlo" font-size="10.00" fill="#1f1f1f">3: beginning</text>
<path fill="#d8d4cf" stroke="none" d="M251.58,-27.25C251.58,-27.25 300.42,-27.25 300.42,-27.25 303.21,-27.25 306,-30.04 306,-32.83 306,-32.83 306,-38.42 306,-38.42 306,-41.21 303.21,-44 300.42,-44 300.42,-44 251.58,-44 251.58,-44 248.79,-44 246,-41.21 246,-38.42 246,-38.42 246,-32.83 246,-32.83 246,-30.04 248.79,-27.25 251.58,-27.25"/>
<text xml:space="preserve" text-anchor="start" x="258" y="-32.5" font-family="Menlo" font-size="10.00" fill="#1f1f1f">4: God</text>
<path fill="#d8d4cf" stroke="none" d="M315.58,-27.25C315.58,-27.25 368.42,-27.25 368.42,-27.25 371.21,-27.25 374,-30.04 374,-32.83 374,-32.83 374,-38.42 374,-38.42 374,-41.21 371.21,-44 368.42,-44 368.42,-44 315.58,-44 315.58,-44 312.79,-44 310,-41.21 310,-38.42 310,-38.42 310,-32.83 310,-32.83 310,-30.04 312.79,-27.25 315.58,-27.25"/>
<text xml:space="preserve" text-anchor="start" x="312" y="-32.5" font-family="Menlo" font-size="10.00" fill="#1f1f1f">5: created</text>
<path fill="#d8d4cf" stroke="none" d="M383.58,-27.25C383.58,-27.25 432.42,-27.25 432.42,-27.25 435.21,-27.25 438,-30.04 438,-32.83 438,-32.83 438,-38.42 438,-38.42 438,-41.21 435.21,-44 432.42,-44 432.42,-44 383.58,-44 383.58,-44 380.79,-44 378,-41.21 378,-38.42 378,-38.42 378,-32.83 378,-32.83 378,-30.04 380.79,-27.25 383.58,-27.25"/>
<text xml:space="preserve" text-anchor="start" x="390" y="-32.5" font-family="Menlo" font-size="10.00" fill="#1f1f1f">6: the</text>
<path fill="#d8d4cf" stroke="none" d="M447.58,-27.25C447.58,-27.25 500.42,-27.25 500.42,-27.25 503.21,-27.25 506,-30.04 506,-32.83 506,-32.83 506,-38.42 506,-38.42 506,-41.21 503.21,-44 500.42,-44 500.42,-44 447.58,-44 447.58,-44 444.79,-44 442,-41.21 442,-38.42 442,-38.42 442,-32.83 442,-32.83 442,-30.04 444.79,-27.25 447.58,-27.25"/>
<text xml:space="preserve" text-anchor="start" x="444" y="-32.5" font-family="Menlo" font-size="10.00" fill="#1f1f1f">7: heavens</text>
<text xml:space="preserve" text-anchor="start" x="224.75" y="-12.7" font-family="Menlo" font-size="9.00" fill="#5c5c5c">Slot Nodes (words)</text>
</g>
<!-- phrases&#45;&gt;words -->
</g>
</svg>
